/* XPM */
static char *_000[] = {
/* columns rows colors chars-per-pixel */
"40 40 134 2 ",
"   c #110F18",
".  c #15131E",
"X  c #171520",
"o  c #191722",
"O  c #1B1924",
"+  c #14192D",
"@  c #1B1C2A",
"#  c #161C33",
"$  c #191E32",
"%  c #161D39",
"&  c #211F2A",
"*  c #1E212C",
"=  c #1C2234",
"-  c #17223C",
";  c #1B233B",
":  c #1E2A3D",
">  c #22222E",
",  c #212532",
"<  c #292736",
"1  c #232933",
"2  c #2C2A37",
"3  c #22273A",
"4  c #242B3C",
"5  c #2B2B3C",
"6  c #0A1643",
"7  c #0A1A45",
"8  c #0C1C4B",
"9  c #151F41",
"0  c #101F4D",
"q  c #0E1F53",
"w  c #0D204F",
"e  c #152342",
"r  c #1A2642",
"t  c #172947",
"y  c #1A2A45",
"u  c #13254C",
"i  c #192749",
"p  c #162A4C",
"a  c #1A2C4B",
"s  c #0E2254",
"d  c #0F2957",
"f  c #0F2658",
"g  c #0F2A58",
"h  c #0F2A59",
"j  c #0F2B59",
"k  c #0F2A5A",
"l  c #0F2B5A",
"z  c #0F2A5B",
"x  c #0F2B5B",
"c  c #0F2959",
"v  c #0F2C5A",
"b  c #0F2A59",
"n  c #112151",
"m  c #122251",
"M  c #112253",
"N  c #142451",
"B  c #102754",
"V  c #112657",
"C  c #112652",
"Z  c #112951",
"A  c #112953",
"S  c #122952",
"D  c #122953",
"F  c #102854",
"G  c #102954",
"H  c #102955",
"J  c #122954",
"K  c #102856",
"L  c #102857",
"P  c #172F54",
"I  c #152F57",
"U  c #122A55",
"Y  c #1E2F53",
"T  c #192E52",
"R  c #102758",
"E  c #102A58",
"W  c #112A58",
"Q  c #102B59",
"!  c #172858",
"~  c #102C59",
"^  c #122D59",
"/  c #142E58",
"(  c #172F5C",
")  c #112C59",
"_  c #1B2F58",
"`  c #1C3050",
"'  c #1E3056",
"]  c #1B3254",
"[  c #17305C",
"{  c #16305D",
"}  c #17305D",
"|  c #17315C",
" . c #18305D",
".. c #19325E",
"X. c #1A325F",
"o. c #1F355F",
"O. c #1C3559",
"+. c #1C395F",
"@. c #222941",
"#. c #2A2D46",
"$. c #232B4C",
"%. c #223143",
"&. c #25304E",
"*. c #29344F",
"=. c #313243",
"-. c #333243",
";. c #333344",
":. c #313146",
">. c #343344",
",. c #343445",
"<. c #353445",
"1. c #373644",
"2. c #363546",
"3. c #32364C",
"4. c #383748",
"5. c #393A4B",
"6. c #3C3A4A",
"7. c #3D3B4C",
"8. c #3D3B4D",
"9. c #3D3C4C",
"0. c #3D3C4D",
"q. c #3E3C4C",
"w. c #3E3D4E",
"e. c #3F3D4E",
"r. c #213853",
"t. c #24305B",
"y. c #24375E",
"u. c #2E3A5C",
"i. c #353A53",
"p. c #363A52",
"a. c #1B3360",
"s. c #394464",
"d. c #41475F",
"f. c #4B4E67",
/* pixels */
"7 w w w 8 8 8 8 8 8 8 8 8 8 8 8 8 8 8 8 8 8 8 8 8 6 6 6 6 6 8 8 8 8 8 8 8 8 6 6 ",
"8 d f d d d d d d d d s q s s s s s s s s s s s 8 7 6 7 6 7 s s s s s s s s 7 6 ",
"8 d f d d d d d d d f s s s s s s s s s s s s s q 7 7 7 7 8 s s s s s s s q 7 6 ",
"8 d z z z z z z z z z z f f z d d d d d d d d d d d d d d d d d d d d d f d 7 6 ",
"8 E z z z z z z z z z z z z z z z z z z z z z z z z z z z z z z z z z z v U 8 6 ",
"8 ~ S # $ # - z z z z z z z z z s.+ # S z z z z z z z z z z z z E # ' z z U 8 6 ",
"N ..y.X O o , ( [ ( [ ........a.f.. . y.............[ ( ........o.O u.[ z U 7 6 ",
"5.4.i.E # o & ,.>.=.,.w.w.8.8.w.2 o o ,.w.w.8.8.8.w.,.=.,.w.8.w.6.O < d.z U 8 6 ",
">   4 E = o o . . X X . . . . . o O O X . . . . . . X X X . . . . O . :.B d 8 8 ",
"O o > =.@ o O O t U U U U a O o r U U U U U @ o = U U U U B @ % 8 8 % & 5 M s q ",
"O O o X O O O @ p z z z z Y @ o r z z z z z @ O = z z z z z $ % s s % o o 0 s q ",
"u ; o @ a S u o @ e z z - ; U @ @ - z z i = S = O $ z z S = i q s s % o O M s q ",
"0 ; O = I ~ I @ @ - z z - : I = @ = z z e @ z ; @ @ z z S @ ` M s s % @ O t.! q ",
"8 ; $ z z y 1 U U a $ U U a , U I a $ S U T $ t U U ; u E U 4 e d d Z r O 2 &.q ",
"8 = = z z r $ U z t O U z T @ S z U O u z I > t U U * e z z = e U z z p O . r s ",
"8 = = z z z Z > I t O U z [ ] , a I O u z ( O.: ; U > e z z z r = E z a O o r s ",
"8 = = z z z S @ p t @ U z z z @ r S @ u z z z = = U = e z z z t @ U z a O o r s ",
"8 = 3 z z z z U - - U z z z z U %.= S z z z z +.r.@ U z z z z E S @ U U O o y s ",
"8 = , z z z z z $ - z z z z z z %.* E z z z z z u o d z z z z z U O t p O * y q ",
"8 ; O O O u U @ O e z @ @ %.z $ o , E - @ # z ; O @ z r @ @ U p @ O @ @ O p 8 7 ",
"8 ; @ e e U T o o r I O o 4 ] @ o = I = o @ I ; o @ I r o O ` a o O O O O Z 8 6 ",
"8 ; 4 z z *.@ O O @ * O O O > O O O * O O O * @ O O * @ O O @ @ O O O O O Z 8 6 ",
"8 ; 4 I I &.O O O O @ @ @ @ @ @ @ @ @ @ @ @ @ @ @ @ @ @ @ @ @ @ @ @ @ @ O Z 8 6 ",
"8 ; O > > i U O . i.z z z z z z z z z z z z z z z z z z z z z z z z z a & Z 7 7 ",
"8 ; o o o e Z O . 3.U U U U U U U U U U U U U U U U U U U U U U U U U a @ u u 8 ",
"8 ; o O o O O O o o o O O O O O O O o o o o o o O O O O O O o O O O O O O O $.s ",
"8 ; o O 1 * o O > 1 1 1 , , , , , , 1 1 1 1 , , , , , , , , , * o O O O O o $.s ",
"8 ; o @ ] y o O ] ~ ~ ~ ~ ~ ~ ~ ~ ~ ~ ~ ~ ~ U U U Z Z Z Z B U a o O O O O o $.s ",
"8 ; o @ I t @ O T z z z z z z z z z z z z z z z z s q q q s z r o O @ $ $ O $.s ",
"8 ; o @ _ z S O S z z z z z z z z z z z z z z z z s s s q s z r o O t d d @ r s ",
"8 ; o @ _ z Z O T z z z z z z z z z z z z z z z z s s s q s z r o O a s q @ r s ",
"8 - o @ _ z Z O Y U U R R R B B U z z z z z z z d s s s s s d r o O a s s @ y q ",
"8 = o @ _ z Z O p d s s s s s s B z z z z z z z d d d d d d z r o O t s s @ 4 ` ",
"8 - o @ I z Z O + $.q q q q q q s E z z z z z z z z z z z z z t o O i s s @ o , ",
"9 $ @ - U z Z O o #.q s s s s s s E z z z z z z z z z z z E T ; O # p s s @ o , ",
"@ o = z z z Z O o @.q s s s s s s E z z z z z z z z z z z E , o @ s s s s @ o , ",
"$ $ r z z z S $ # y s s s q q q s E z z z z z z z z z z ~ E r # # s s s s ; $ r ",
"8 U E z z z z z z z f f f f f f z z z z z z z z z z z d s s s s s s s s s q 8 8 ",
"8 d ~ E E E z z z z v v v v z z z E E E z z E E E ~ E d q q s s q q q s s q 7 6 ",
"7 s z d d U U d d d z z z f f f d B d U d d U d d d d s 8 q s s q q w w s 8 7 6 "
};
