/* XPM */
static char *eca00a2401bd4ed2df5da4e9b38073266wrIVspk0mMHqi9c[] = {
/* columns rows colors chars-per-pixel */
"40 40 160 2 ",
"   c #091342",
".  c #091443",
"X  c #091543",
"o  c #0A1642",
"O  c #0A1743",
"+  c #091544",
"@  c #091644",
"#  c #0A1644",
"$  c #091843",
"%  c #0A1843",
"&  c #0B1843",
"*  c #0A1943",
"=  c #0A1944",
"-  c #0B1944",
";  c #0A1845",
":  c #0A1945",
">  c #0A1A45",
",  c #0B1947",
"<  c #0B1B46",
"1  c #0A1A47",
"2  c #0A1B47",
"3  c #0B1B47",
"4  c #0B1C46",
"5  c #0B1C47",
"6  c #0C1C47",
"7  c #0C1D47",
"8  c #0B1A48",
"9  c #0B1B48",
"0  c #0B1B49",
"q  c #0B194A",
"w  c #0B1B4A",
"e  c #0C1948",
"r  c #0C1949",
"t  c #0C1A49",
"y  c #0D1A49",
"u  c #0C1B49",
"i  c #0C194A",
"p  c #0D1A4A",
"a  c #0C1B4A",
"s  c #0B1C48",
"d  c #0C1C48",
"f  c #0C1D49",
"g  c #0C1E49",
"h  c #0D1D4A",
"j  c #0D1E4B",
"k  c #0C1C4C",
"l  c #0C1D4C",
"z  c #0C1D4D",
"x  c #0C1E4C",
"c  c #0D1E4C",
"v  c #0C1E4D",
"b  c #0D1E4D",
"n  c #0C1F4D",
"m  c #0D1F4D",
"M  c #0C1D4E",
"N  c #0D1E4E",
"B  c #0C1F4E",
"V  c #0D1E4F",
"C  c #0C1F4F",
"Z  c #0E1F4F",
"A  c #0E1F50",
"S  c #0E1E51",
"D  c #0E1F51",
"F  c #0E1F52",
"G  c #0E1E53",
"H  c #0E1F53",
"J  c #0E1F54",
"K  c #0C204F",
"L  c #0D204F",
"P  c #0E204E",
"I  c #0E204F",
"U  c #0D224E",
"Y  c #0D2050",
"T  c #0E2050",
"R  c #0E2150",
"E  c #0E2051",
"W  c #0E2052",
"Q  c #0E2152",
"!  c #0E2053",
"~  c #0E2153",
"^  c #0E2253",
"/  c #0E2452",
"(  c #0E2653",
")  c #0E2054",
"_  c #0E2154",
"`  c #0F2154",
"'  c #0E2155",
"]  c #0E2254",
"[  c #0F2254",
"{  c #0E2354",
"}  c #0F2354",
"|  c #0E2255",
" . c #0F2255",
".. c #0E2355",
"X. c #0E2056",
"o. c #0E2156",
"O. c #0F2256",
"+. c #0F2356",
"@. c #0F2454",
"#. c #0E2455",
"$. c #0F2455",
"%. c #0F2555",
"&. c #0F2754",
"*. c #0F2655",
"=. c #0F2755",
"-. c #0E2456",
";. c #0F2456",
":. c #0E2556",
">. c #0F2556",
",. c #0F2457",
"<. c #0F2557",
"1. c #0F2656",
"2. c #0E2756",
"3. c #0F2756",
"4. c #0E2657",
"5. c #0F2657",
"6. c #0E2757",
"7. c #0F2757",
"8. c #0F2956",
"9. c #0F2857",
"0. c #0F2957",
"q. c #0F2A56",
"w. c #0F2A57",
"e. c #0F2458",
"r. c #0E2658",
"t. c #0F2658",
"y. c #0E2758",
"u. c #0F2758",
"i. c #0F2659",
"p. c #0E2858",
"a. c #0F2858",
"s. c #0F2958",
"d. c #0F2959",
"f. c #0F2A58",
"g. c #0F2B58",
"h. c #0F2A59",
"j. c #0F2B59",
"k. c #0F2A5A",
"l. c #0F2B5A",
"z. c #0F2A5B",
"x. c #0F2B5B",
"c. c #0F2C5A",
"v. c #102455",
"b. c #102756",
"n. c #102855",
"m. c #102856",
"M. c #102857",
"N. c #102957",
"B. c #102758",
"V. c #102858",
"C. c #102958",
"Z. c #102A58",
"A. c #102A59",
"S. c #102B59",
"D. c #102B5A",
"F. c #102A5B",
"G. c #102B5B",
"H. c #102C59",
"J. c #102C5B",
"K. c #102D5D",
/* pixels */
", U U U B B B B B B B B a a 0 a a a a a a a a a a + X + X + a a a a a a a a X   ",
"0 2.y.2.2.2.2.2.2.2.2.} H ~ ~ } } } } } ~ ~ } } U , $ , $ , ~ } ~ ~ } } } ~ , $ ",
"0 2.y.2.2.2.2.2.2.2.y.} } } } } } } } } ~ ~ ~ } ~ 7 4 4 4 j ~ } ~ ~ ~ ~ } ~ , $ ",
"a 0.z.z.z.z.z.z.z.z.0.0.y.y.y.2.2.2.2.2.2.2.2.2.2.2.2.2.2.2.2.2.2.2.2.2.z.2., $ ",
"j S.z.z.z.z.z.z.z.z.z.z.z.z.z.z.z.z.z.z.z.z.z.z.z.z.z.z.z.z.z.z.z.z.z.z.c.N.0 $ ",
"j H.z.z.z.z.z.z.z.z.z.z.z.z.z.z.z.z.z.z.z.z.z.z.z.z.z.z.z.z.z.z.z.z.z.z.z.N.0 $ ",
"j z.z.z.z.z.z.z.z.z.z.z.z.z.z.z.z.z.z.z.z.z.z.z.z.z.z.z.z.z.z.z.z.z.z.z.z.N., X ",
"j 0.z.z.z.z.z.z.z.z.z.z.z.z.z.z.z.z.z.z.z.z.z.z.z.z.z.z.z.N.S.z.z.z.z.z.z.N.0 X ",
"j 0.z.z.z.z.z.z.z.z.z.z.z.z.z.z.z.z.z.z.z.z.z.z.z.z.z.z.z.S.2.2.2.2.} 2.2.2.B B ",
"j z.z.z.z.z.z.z.z.z.z.z.z.z.z.z.z.z.z.z.z.z.z.z.z.z.z.z.z.z.~ H H H H ~ ~ ~ H H ",
"B z.z.z.z.z.z.z.z.z.z.z.z.z.z.z.z.z.z.z.z.z.z.z.z.z.z.z.z.z.~ H ~ H ~ ~ ~ ~ } J ",
"B z.z.z.z.z.z.z.z.z.z.z.z.z.z.z.z.z.z.z.z.z.z.z.z.z.z.z.z.z.~ H ~ ~ ~ ~ ~ ~ H H ",
"B z.z.z.z.z.z.z.z.z.z.z.z.z.z.z.z.z.z.z.z.z.z.z.z.z.z.z.z.z.} H ~ ~ ~ ~ ~ ~ ~ H ",
"j z.z.z.z.z.z.z.z.z.z.z.z.z.z.z.z.z.z.z.z.z.z.z.z.z.z.z.z.z.2.2.2.2.2.2.2.2.~ H ",
"j z.z.z.z.z.z.z.z.z.z.z.z.z.z.z.z.z.z.z.z.z.z.z.z.z.z.z.z.z.z.z.z.z.z.z.z.N.~ ~ ",
"j z.z.z.z.z.z.z.z.z.z.z.z.z.z.z.z.z.z.z.z.z.z.z.z.z.z.z.z.z.z.z.z.z.z.z.z.N.~ ~ ",
"B z.z.z.z.z.z.z.z.z.z.z.z.z.z.z.z.z.z.z.z.z.z.z.z.z.z.z.z.z.z.z.z.z.z.z.z.N.~ ~ ",
"B z.z.z.z.z.z.z.z.z.z.z.z.z.z.z.z.z.z.z.z.z.z.z.z.z.z.z.z.z.z.z.z.z.z.z.z.N.~ ~ ",
"j 0.z.z.z.z.z.z.z.z.z.z.z.z.z.z.z.z.z.z.z.z.z.z.z.z.z.z.z.z.z.z.z.z.z.z.z.0.~ H ",
"j 0.z.z.z.z.z.z.z.z.z.z.z.z.z.z.z.z.z.z.z.z.z.z.z.z.z.z.z.z.z.z.z.z.z.z.z.b.4 , ",
"j 0.z.z.z.z.z.z.z.z.z.z.z.z.z.z.z.z.z.z.z.z.z.z.z.z.z.z.z.z.z.z.z.z.z.z.z.N.0 X ",
"j 0.z.z.z.z.z.z.z.z.z.z.z.z.z.z.z.z.z.z.z.z.z.z.z.z.z.z.z.z.z.z.z.z.z.z.z.N.0 X ",
"j 0.z.z.z.z.z.z.z.z.z.z.z.z.z.z.z.z.z.z.z.z.z.z.z.z.z.z.z.z.z.z.z.z.z.z.z.N., X ",
"j 0.z.z.z.z.z.z.z.z.z.z.z.z.z.z.z.z.z.z.z.z.z.z.z.z.z.z.z.z.z.z.z.z.z.z.z.N.7 $ ",
"7 0.z.z.z.z.z.z.z.z.z.z.z.z.z.z.z.z.z.z.z.z.z.z.z.z.z.z.z.z.z.z.z.z.z.z.z.N.U B ",
"7 0.z.z.z.z.z.z.z.z.z.z.z.z.z.z.z.z.z.z.z.z.z.z.z.z.z.z.z.z.z.z.z.z.z.z.z.N.~ ~ ",
"j 0.z.z.z.z.z.z.z.z.z.z.z.z.z.z.z.z.z.z.z.z.z.z.0.0.0.0.0.0.z.z.z.z.z.z.z.N.~ ~ ",
"B 0.z.z.z.z.z.z.z.z.z.z.z.z.z.z.z.z.z.z.z.z.z.z.0.~ ~ ~ ~ } 0.z.z.z.z.z.z.N.~ ~ ",
"B 0.z.z.z.z.z.z.z.z.z.z.z.z.z.z.z.z.z.z.z.z.z.z.z.~ H H H } 0.z.z.z.z.z.z.N.~ ~ ",
"B 0.z.z.z.z.z.z.z.z.z.z.z.z.z.z.z.z.z.z.z.z.z.z.z.~ ~ ~ H } 0.z.z.z.z.2.2.2.~ ~ ",
"B 0.z.z.z.z.z.z.z.z.z.z.z.z.z.z.z.z.z.z.z.z.z.z.z.~ ~ ~ H } z.z.z.z.z.} H H ~ ~ ",
"B 0.z.z.z.z.z.z.0.N.N.b.B.b.b.b.N.z.z.z.z.z.z.z.0.} ~ } } } 0.z.z.S.B.} ~ ~ ~ H ",
"j 0.z.z.z.z.z.z.2.2.} } } } } } b.z.z.z.z.z.z.z.0.0.2.2.2.0.z.z.0.~ ~ ~ ~ ~ ~ H ",
"7 N.S.z.z.z.z.z.0.~ H H H H H H } S.z.z.z.z.z.z.z.z.z.z.z.z.z.z.z.~ H ~ ~ ~ ~ H ",
"j N.S.z.z.z.z.z.0.~ H ~ ~ ~ ~ ~ } S.z.z.z.z.z.z.z.z.z.z.z.z.0.2.2.~ ~ ~ ~ ~ ~ H ",
"j N.S.z.z.z.z.z.0.~ H ~ ~ ~ ~ ~ } S.z.z.z.z.z.z.z.z.z.z.z.z.2.} } ~ ~ ~ ~ ~ ~ H ",
"j N.S.z.z.z.z.z.z.} ~ ~ ~ ~ ~ ~ } S.z.z.z.z.z.z.z.z.z.z.H.N.} H ~ ~ H H H H ~ H ",
"j N.S.z.z.z.z.z.z.z.y.y.y.y.y.y.0.z.z.z.z.z.z.z.z.z.z.2.} } } ~ ~ ~ H ~ J H 0 0 ",
"j 0.K.S.S.S.z.z.z.z.z.c.c.c.c.c.z.S.S.S.z.z.S.S.S.H.S.2.J H ~ ~ ~ } } } J H , X ",
", ( 0.0.0.N.N.0.2.0.z.z.z.z.z.z.0.b.0.N.0.0.N.0.0.0.0.( B H } } ~ ~ U U H B , $ "
};
