/* XPM */
static char *ff42127bffbb4cbbaf5d2a7167527447iHJA1ZsEUY0Sba8M[] = {
/* columns rows colors chars-per-pixel */
"40 40 203 2 ",
"   c #0B1947",
".  c #0D224E",
"X  c #0C1F4E",
"o  c #020101",
"O  c #0C1B4A",
"+  c #0B1B49",
"@  c #091544",
"#  c #091543",
"$  c #091342",
"%  c #0E2756",
"&  c #0E2758",
"*  c #141413",
"=  c #4B4B4B",
"-  c gray36",
";  c #585857",
":  c #282827",
">  c #0E1F53",
",  c #0E2153",
"<  c #0F2354",
"1  c #091843",
"2  c #3C3C3C",
"3  c gray39",
"4  c #2C2C2C",
"5  c #090708",
"6  c #DEDDDD",
"7  c gray94",
"8  c gray81",
"9  c #0C0B0C",
"0  c #0C1D47",
"q  c #0B1C46",
"w  c gray10",
"e  c #7D7C7D",
"r  c #E6E6E6",
"t  c #A8A7A8",
"y  c #444444",
"u  c #0F2957",
"i  c #0F2A5B",
"p  c #D2D1D2",
"a  c white",
"s  c #BCBABB",
"d  c #232322",
"f  c gray42",
"g  c gray79",
"h  c #0D1E4B",
"j  c #102B59",
"k  c #9B9A9A",
"l  c #EFEDEE",
"z  c #949394",
"x  c #102957",
"c  c #102C59",
"v  c #585757",
"b  c #F8F7F7",
"n  c #B4B3B4",
"m  c #535353",
"M  c #E2E1E1",
"N  c #C3C2C3",
"B  c gray20",
"V  c #B0AEAF",
"C  c #C6C4C5",
"Z  c #696769",
"A  c #D9D8D9",
"S  c #D1CED0",
"D  c #5E5B6E",
"F  c #13121C",
"G  c #191722",
"H  c #31302F",
"J  c #747474",
"K  c #B9B7B8",
"L  c #8B8B8B",
"P  c #5A576A",
"I  c #15131D",
"U  c #17151F",
"Y  c #3B3B4B",
"T  c #3A3847",
"R  c #434050",
"E  c #282727",
"W  c #848383",
"Q  c #3E3C4C",
"!  c #403E4E",
"~  c #2D2A37",
"^  c #191822",
"/  c #383644",
"(  c #363444",
")  c #353341",
"_  c #F0EFEF",
"`  c #0E1F54",
"'  c #22202D",
"]  c #110F18",
"[  c #ECEAEB",
"{  c #1B1A25",
"}  c #F6F6F6",
"|  c #1D1B26",
" . c #1E1E28",
".. c #A5A4A4",
"X. c #C1BFC0",
"o. c #1F222E",
"O. c gray92",
"+. c #FBFAFB",
"@. c #ACACAC",
"#. c #171520",
"$. c #B8B6B7",
"%. c #CECBCD",
"&. c #999697",
"*. c #181717",
"=. c #211F2C",
"-. c #787778",
";. c #D9D7D8",
":. c #9A9799",
">. c #C5C3C4",
",. c #C0BEBF",
"<. c #C9C7C8",
"1. c #C8C6C7",
"2. c #1C1C27",
"3. c #242D39",
"4. c #232832",
"5. c #CFCDD0",
"6. c #D6D4D6",
"7. c #2C2A38",
"8. c #353E4A",
"9. c #211F2B",
"0. c #232C34",
"q. c #20242F",
"w. c #232B37",
"e. c #1E202B",
"r. c #D8D6D7",
"t. c #686667",
"y. c #C4C3C3",
"u. c #E8E7E8",
"i. c #272633",
"p. c #41403F",
"a. c #D4D2D4",
"s. c #262D37",
"d. c #25232F",
"f. c #2A343D",
"g. c #D4D3D3",
"h. c #2B2835",
"j. c #D0CECF",
"k. c #383443",
"l. c #908E8F",
"z. c #FBFBFB",
"x. c #403E50",
"c. c #81807E",
"v. c #807F7B",
"b. c #1A1921",
"n. c #191817",
"m. c #060613",
"M. c #16143C",
"N. c #211E51",
"B. c #18163C",
"V. c #04040B",
"C. c #04031B",
"Z. c #212733",
"A. c #27313A",
"S. c #1E1C39",
"D. c #423D7C",
"F. c #3D3972",
"G. c #211F40",
"H. c #0E0C23",
"J. c #0B0A15",
"K. c #110D0E",
"L. c #120E13",
"P. c #0C0A1C",
"I. c #100E2C",
"U. c #1C1849",
"Y. c #26303C",
"T. c #393648",
"R. c #221F1D",
"E. c #090718",
"W. c #1B1934",
"Q. c #26234B",
"!. c #131233",
"~. c #16141B",
"^. c #15160F",
"/. c #110F1C",
"(. c #191732",
"). c #2D2A58",
"_. c #211D4E",
"`. c #18142D",
"'. c #312E61",
"]. c #39366F",
"[. c #242144",
"{. c #14122C",
"}. c #0F0E2B",
"|. c #363268",
" X c #3E3A79",
".X c #131225",
"XX c #0A0704",
"oX c #353165",
"OX c #1F192A",
"+X c #333145",
"@X c #1D1A43",
"#X c #181423",
"$X c #100F32",
"%X c #2B2854",
"&X c #2F2F43",
"*X c #0B0906",
"=X c #262B3D",
"-X c #0F2C5A",
";X c #211F3F",
":X c #100F22",
">X c #252A3B",
",X c #282751",
"<X c #242A37",
/* pixels */
"  . . . X X X X o o o X O O + O O O O O O O O O O @ # @ # @ O o o O O O O O # $ ",
"+ % & % % % % * = - ; : > , , < < < < < , , < < .   1   1   2 3 ; 4 < < < ,   1 ",
"+ % & % % % 5 - 6 7 8 ; 9 < < < < < < < , , , < , 0 q q q w e r 7 t y 5 < ,   1 ",
"O u i i i 9 - p a s - d & & & % % % % % % % % % % % % % % % 4 f r a g 3 5 %   1 ",
"h j i i o w k a l e 9 i i i i i i i i i i i i i i i i i i i o 9 t a a z 9 x + 1 ",
"h c i i * v g b n m * i i i i i i i i i i i i i i i i i i i i 9 - s M n m w + 1 ",
"h i i * m s a N B 9 i i i i i i i i i i i i i i i i i i i i i i 9 = V 7 C m   # ",
"h u i * Z A a t o i i i i i i i i i i i i i i i i i i i i x j i o : k a r Z + # ",
"h u i * f S b C f B i i i i i i D F G i i i i i i i i i i j % % H J g a r f X X ",
"h i i * m z K M 7 L d i i i i i P I U i i i i i i i i i i i o w L 6 a 7 t = > > ",
"Y T R i o E L l 7 W w Q Q Q Q ! ~ G ^ / ! Q Q Q Q Q ( ) ( Q o * L _ a k d , < ` ",
"' ] ~ i o * W [ A f * o I I I I G { { U I I I I I I U U U o o w t a } L 9 , > > ",
"| G ' )  .9 = ..X.L ; = B 9 | ^ o.i i i i i ^ ^  .i i i d m 3 e O.+.@.= 5 , , > ",
"| | ^ #.{ | o 2 z $.X.%.&.2 9 * *.*.*.*.*.* *.w d d * : W M O.} 7 &.B ^ ^ % , > ",
"h =.G  .i i i ^ : -.X.;.N ..z &.&.&.&.&.&.z :.K g 8 N g O.a a O.3 * ^ ^ ^ x , , ",
"h ' G  .i i i  .9 m @.>.,.N g <.<.<.<.<.1.X.>.l a a a a a a a p 4 o  .2.| x , , ",
"X =. .i i 3.4.i 9 - @.C s $.s s s s s s s s 5.l a a a a a a a 6.2 o i 3.| 7.8., ",
"X 9. .i i o.| i 9 - @.C s s X.X.s s s $.n %.7 a a a a a a a a 6.2 o i i { U 0., ",
"h  . .i i i i q.9 - @.C ,.s ,.,.s s s $.n p +.a a a +.a a a a 6.2 o i i { ^ w.> ",
"h  .e.i i i i  .9 - n r.n -.v t.&.y.N >.p u.a a } n e W C a a 6.2 o i i { ^ w.  ",
"h  .i.i i i i i 9 - n >.-.w o 9 p.&.n a.} a +.M t 2 o 5 m s l A 2 o i i { G s.# ",
"h  .d.i i i i i 9 3 t f w o o o 5 E W p +.a M e d 5 o o 5 2 t r y o i i | e.f.# ",
"h ' ^ ^ ^ i i ^ * Z ..m 9 o o o o 9 J g.a a A ; 5 o o o o * L r y o { ^ | x   # ",
"h ' | i i i i ^ * Z n L 4 o o o * y z 6.+.a O.k y 9 o o * 3 g 7 y o { { { x 0 1 ",
"0 =.h.i i Y  .{ 9 m ..j.&.B o w 3 n ,.j.O.a a 7 g.t.9 * W r +.N B o { { | x . X ",
"0 =.h.i i k.G { { 9 4 L N V l.k V y.,.s N A z.a a r C p } O.z E { { { { | x , , ",
"h ' | d.d.i i { U x.o Z p M 8 p 8 g g <.C 8 r a a a a a a O.-.5 i i i i 9.x , , ",
"X ' G G G i i { U B ; e W W W c.v.c.W W W e W k t @.@.@.n k = 5 i i i i  .x , , ",
"X ' ^ { G ^ o o w J n J E * w *.b.b.w w w w n.w d d d : : d G ^ { { { ^ { ^ / , ",
"X ' ^ { 4.o.o * 2 m ; E 5 o m.M.N.B.V.o o o o V.C.C.V.o o Z.Z.o.^ { { { { ^ / , ",
"X ' G  .i A.G E = : 5 o o o S.D.F.G.H.J.K.L.P.H.I.U.M.m.> < i Y.^ { { { { ^ T., ",
"X ' G  .i i G | : B B R.5 E.W.Q.S.H.!.!.L.~.M.H.m.H.H.E.o < u i ^ { | ^ { ^ ( > ",
"h ' G  .i i i | 9 d 4 ^./.Q.Q.P.(.)._.`.L./.M.M.I.m.P.I.H.V.i w.^ | , , , 2.s.> ",
"0 ' G  .i i i | u 9 * o H.'.].[.(.(.{.P.5 9 /.H.P.P.!.B.}.V.i w.^ { > , , 2.s.> ",
"h  .^  .i i i | u , o o V.S.|. X)..XK.XXo o 5 9 E.H.I.H.m.o u w.^ { , , , | s.> ",
"h  .^  .i i i | u , > o o V.(.'. XoXOXXXo o K.`.!.P.V.5 V.o % w.^ { , , , { A.> ",
"h  .^  .i i i { U +X, o /.Q.[.P.{.@X#X5 o o K.`.M.$X@X%XS.V.< > ^ { > > > 2.G Z.",
"h  .^  .i i i { G &X& o V.{.[.Q.W.E.9 *Xo o 5 J..XB.@X!.E.o < Z.^ { > , ` 2.G q.",
" .^  .j j j i { G =Xi -Xo o .X;X{.o XX*Xo o o XXK.:X{.{.J.o Z.G 2.< < < ` | G q.",
" .{ o.u u x x { G >Xi i i o V.J.V.o 5 9 o o o XX*Xo .X,XG.V.3.| | , . . > '  .<X"
};
