/* XPM */
static char *d2bcd298a2ce4ef9ac930262f914eda8htYNX5vf0LAXxjNt[] = {
/* columns rows colors chars-per-pixel */
"40 40 160 2 ",
"   c None",
".  c #020101",
"X  c #0A0704",
"o  c #0B0906",
"O  c #04040B",
"+  c #090708",
"@  c #0C0B0C",
"#  c #110D0E",
"$  c #15160F",
"%  c #060613",
"&  c #0B0A15",
"*  c #04031B",
"=  c #090718",
"-  c #0C0A1C",
";  c #120E13",
":  c #110F1C",
">  c #141413",
",  c #181717",
"<  c #191817",
"1  c #16141B",
"2  c #1A1A1A",
"3  c #221F1D",
"4  c #0E0C23",
"5  c #0F0E2B",
"6  c #100F22",
"7  c #100E2C",
"8  c #131225",
"9  c #181423",
"0  c #1A1921",
"q  c #14122C",
"w  c #18142D",
"e  c #1F192A",
"r  c #100F32",
"t  c #131233",
"y  c #191732",
"u  c #1B1934",
"i  c #16143C",
"p  c #18163C",
"a  c #1E1C39",
"s  c #211F3F",
"d  c #232322",
"f  c #282727",
"g  c #282827",
"h  c #2C2C2C",
"j  c #31302F",
"k  c #333333",
"l  c #3C3C3C",
"z  c #41403F",
"x  c #1D1A43",
"c  c #1C1849",
"v  c #211F40",
"b  c #211D4E",
"n  c #211E51",
"m  c #242144",
"M  c #26234B",
"N  c #282751",
"B  c #2B2854",
"V  c #2D2A58",
"C  c #312E61",
"Z  c #353165",
"A  c #363268",
"S  c #39366F",
"D  c #3D3972",
"F  c #3E3A79",
"G  c #423D7C",
"H  c #444444",
"J  c #4B4B4B",
"K  c #535353",
"L  c #585757",
"P  c #585857",
"I  c #5C5C5C",
"U  c #636363",
"Y  c #686667",
"T  c #696769",
"R  c #6B6B6B",
"E  c #747474",
"W  c #787778",
"Q  c #7D7C7D",
"!  c #807F7B",
"~  c #81807E",
"^  c #848383",
"/  c #8B8B8B",
"(  c #908E8F",
")  c #949394",
"_  c #999697",
"`  c #9A9799",
"'  c #9B9A9A",
"]  c #A5A4A4",
"[  c #A8A7A8",
"{  c #ACACAC",
"}  c #B0AEAF",
"|  c #B4B3B4",
" . c #B8B6B7",
".. c #B9B7B8",
"X. c #BCBABB",
"o. c #C0BEBF",
"O. c #C1BFC0",
"+. c #C4C3C3",
"@. c #C5C3C4",
"#. c #C6C3C6",
"$. c #C6C4C5",
"%. c #C6C6C6",
"&. c #C3C2C3",
"*. c #C8C6C7",
"=. c #C9C7C8",
"-. c #C9C7C8",
";. c #C9C9C9",
":. c #CBCBCB",
">. c #CAC8C9",
",. c #CECBCD",
"<. c gray81",
"1. c gray80",
"2. c #CDCBCC",
"3. c #D0CECF",
"4. c #CFCDD0",
"5. c #D1CED0",
"6. c #D2D1D2",
"7. c #D3D2D3",
"8. c #D4D3D3",
"9. c #D4D2D4",
"0. c #D7D7D7",
"q. c #D6D4D6",
"w. c #D2D1D2",
"e. c #D8D6D7",
"r. c #D9D7D8",
"t. c #D9D8D9",
"y. c gray86",
"u. c #DEDDDD",
"i. c gray86",
"p. c #E1E1E1",
"a. c #E2E1E1",
"s. c gray89",
"d. c #E5E5E5",
"f. c #E6E6E6",
"g. c #E7E7E7",
"h. c #E6E5E5",
"j. c #E8E7E8",
"k. c gray92",
"l. c #EAEAEA",
"z. c #ECEAEB",
"x. c #EFEDEE",
"c. c #EFEFEF",
"v. c #EAEAEA",
"b. c #F0EFEF",
"n. c gray94",
"m. c #F1F0F0",
"M. c #F3F2F3",
"N. c #F1F2F2",
"B. c #F5F5F5",
"V. c #F6F6F6",
"C. c #F4F4F4",
"Z. c #F8F7F7",
"A. c #FBFBFB",
"S. c #FBFAFB",
"D. c gray99",
"F. c #FDFDFD",
"G. c #FEFEFE",
"H. c #FFFEFE",
"J. c white",
"K. c #FEFEFE",
/* pixels */
"                . . .                                         . .               ",
"              > J I P g                                     l U P h             ",
"            + I u.n.<.P @                                 2 Q f.n.[ H +         ",
"          @ I 6.J.X.I d                                     h R f.J.;.U +       ",
"        . 2 ' J.x.Q @                                       . @ [ J.J.) @       ",
"        > L ;.Z.| K >                                         @ I X.a.| K 2     ",
"      > K X.J.&.k @                                             @ J } n.$.K     ",
"      > T t.J.[ .                                               . g ' J.f.T     ",
"      > R 5.Z.$.R k                                             j E ;.J.f.R     ",
"      > K ) ..a.n./ d                                       . 2 / u.J.n.[ J     ",
"        . f / x.n.^ 2                                       . > / b.J.' d       ",
"        . > ^ z.t.R > .                                   . . 2 [ J.V./ @       ",
"          @ J ] O./ P J k @                             d K U Q k.S.{ J +       ",
"            . l )  .O.,._ l @ > , , , , , > , 2 d d > g ^ a.k.V.n._ k           ",
"                g W O.r.&.] ) _ _ _ _ _ _ ) ` ..;.<.&.;.k.J.J.k.U >             ",
"                @ K { @.o.&.;.=.=.=.=.=.*.O.@.x.J.J.J.J.J.J.J.6.h .             ",
"                @ I { $.X. .X.X.X.X.X.X.X.X.4.x.J.J.J.J.J.J.J.q.l .             ",
"                @ I { $.X.X.O.O.X.X.X. .| ,.n.J.J.J.J.J.J.J.J.q.l .             ",
"                @ I { $.o.X.o.o.X.X.X. .| 6.S.J.J.J.S.J.J.J.J.q.l .             ",
"                @ I | e.| W L Y _ +.&.@.6.j.J.J.V.| Q ^ $.J.J.q.l .             ",
"                @ I | @.W 2 . @ z _ | 9.V.J.S.a.[ l . + K X.x.t.l .             ",
"                @ U [ R 2 . . . + f ^ 6.S.J.a.Q d + . . + l [ f.H .             ",
"                > T ] K @ . . . . @ E 8.J.J.t.P + . . . . > / f.H .             ",
"                > T | / h . . . > H ) q.S.J.k.' H @ . . > U ;.n.H .             ",
"                @ K ] 3._ k . 2 U | o.3.k.J.J.n.8.Y @ > ^ f.S.&.k .             ",
"                  @ h / &.} ( ' } +.o.X.&.t.A.J.J.f.$.6.V.k.) f                 ",
"                    . T 6.a.<.6.<.;.;.=.$.<.f.J.J.J.J.J.J.k.W +                 ",
"                  k P Q ^ ^ ^ ~ ! ~ ^ ^ ^ Q ^ ' [ { { { | ' J +                 ",
"            . . 2 E | E f > 2 , 0 0 2 2 2 2 < 2 d d d g g d                     ",
"            . > l K P f + . % i n p O . . . . O * * O . .                       ",
"              f J g + . . . a G D v 4 & # ; - 4 7 c i %                         ",
"                g k k 3 + = u M a 4 t t ; 1 i 4 % 4 4 = .                       ",
"                @ d h $ : M M - y V b w ; : i i 7 % - 7 4 O                     ",
"                  @ > . 4 C S m y y q - + @ : 4 - - t p 5 O                     ",
"                    . . O a A F V 8 # X . . + @ = 4 7 4 % .                     ",
"                      . . O y C F Z e X . . # w t - O + O .                     ",
"                      . : M m - q x 9 + . . # w i r x B a O                     ",
"                      . O q m M u = @ o . . + & 8 p x t = .                     ",
"                        . . 8 s q . X o . . . X # 6 q q & .                     ",
"                          . O & O . + @ . . . X o . 8 N v O                     "
};
