/* XPM */
static char *e9293c3e8d204843f1b05239ebc1a01eGxTfy3uBCwSqQLiq[] = {
/* columns rows colors chars-per-pixel */
"40 40 171 2 ",
"   c None",
".  c #110F18",
"X  c #14111B",
"o  c #13121C",
"O  c #14121C",
"+  c #15131D",
"@  c #15131E",
"#  c #16141E",
"$  c #16141F",
"%  c #17151F",
"&  c #171520",
"*  c #181520",
"=  c #191521",
"-  c #1A1520",
";  c #181620",
":  c #191621",
">  c #191721",
",  c #1A1621",
"<  c #1A1721",
"1  c #191722",
"2  c #1A1622",
"3  c #1A1722",
"4  c #191822",
"5  c #1A1822",
"6  c #1A1823",
"7  c #1B1823",
"8  c #1A1923",
"9  c #1B1923",
"0  c #1B1824",
"q  c #1B1924",
"w  c #1B1A24",
"e  c #1B1A25",
"r  c #1B1B25",
"t  c #1C1924",
"y  c #1C1A25",
"u  c #1C1B25",
"i  c #1C1A26",
"p  c #1C1B26",
"a  c #1D1B26",
"s  c #1C1B27",
"d  c #1E1B27",
"f  c #1C1C26",
"g  c #1C1C27",
"h  c #1C1C28",
"j  c #1D1C28",
"k  c #1D1D28",
"l  c #1D1D29",
"z  c #1E1C28",
"x  c #1F1D28",
"c  c #1E1C29",
"v  c #1E1D29",
"b  c #1F1D29",
"n  c #1D1E29",
"m  c #1E1E28",
"M  c #1E1E29",
"N  c #1F1E29",
"B  c #1E1F29",
"V  c #1E1C2A",
"C  c #1E1D2A",
"Z  c #1D1F2A",
"A  c #1E1E2A",
"S  c #1E1F2A",
"D  c #1E1F2B",
"F  c #201E29",
"G  c #201E2B",
"H  c #201F2B",
"J  c #211F2B",
"K  c #211F2C",
"L  c #211F2D",
"P  c #1E202A",
"I  c #1E202B",
"U  c #1F212C",
"Y  c #1F202D",
"T  c #1E212D",
"R  c #1F212D",
"E  c #1F222D",
"W  c #1F222E",
"Q  c #1F232F",
"!  c #1F242F",
"~  c #22202D",
"^  c #23212D",
"/  c #20222C",
"(  c #22202E",
")  c #23212F",
"_  c #20222E",
"`  c #20232F",
"'  c #23222E",
"]  c #25232F",
"[  c #20242F",
"{  c #21242F",
"}  c #21252F",
"|  c #252330",
" . c #202430",
".. c #202530",
"X. c #212530",
"o. c #212531",
"O. c #202631",
"+. c #212631",
"@. c #222731",
"#. c #212632",
"$. c #212732",
"%. c #212733",
"&. c #272633",
"*. c #292735",
"=. c #232832",
"-. c #222833",
";. c #232933",
":. c #232A35",
">. c #232B35",
",. c #232A36",
"<. c #232B37",
"1. c #242A37",
"2. c #232C34",
"3. c #252D35",
"4. c #252D37",
"5. c #262D37",
"6. c #262E37",
"7. c #272E37",
"8. c #2B2835",
"9. c #2C2A37",
"0. c #2D2A37",
"q. c #252A3B",
"w. c #242D38",
"e. c #252C39",
"r. c #242D39",
"t. c #252E3B",
"y. c #242F3B",
"u. c #252F3B",
"i. c #262B3D",
"p. c #2C2A38",
"a. c #2E2D3C",
"s. c #273039",
"d. c #27313A",
"f. c #25303C",
"g. c #26303C",
"h. c #26323E",
"j. c #28333B",
"k. c #28333C",
"l. c #2A343D",
"z. c #2A363E",
"x. c #2F2F43",
"c. c #353341",
"v. c #343242",
"b. c #343343",
"n. c #353343",
"m. c #333145",
"M. c #363344",
"N. c #343444",
"B. c #363444",
"V. c #373545",
"C. c #383443",
"Z. c #383644",
"A. c #383647",
"S. c #3A3847",
"D. c #393648",
"F. c #353E4A",
"G. c #3A3949",
"H. c #3A3B49",
"J. c #3B3B4B",
"K. c #3D3A4A",
"L. c #3E3C4C",
"P. c #3F3C4C",
"I. c #3F3D4D",
"U. c #403E4E",
"Y. c #403E50",
"T. c #2E424F",
"R. c #434050",
"E. c #4B495E",
"W. c #4C4D60",
"Q. c #5A576A",
"!. c #5E5B6E",
/* pixels */
"                                                                                ",
"                                                                                ",
"                                                                                ",
"                                                                                ",
"                                                                                ",
"                                                                                ",
"                                                                                ",
"                                                                                ",
"      1 e 4 m                   !.o 1                             4             ",
"      + e 1 |                   Q.+ %                             e E.          ",
"J.S.R.  4 4 J B.c.c.B.L.L.L.L.U.0.1 4 Z.U.L.L.L.L.L.B.c.B.L.L.L.K.a *.W.        ",
"~ . 0.  m 4 4 % % % % + + + + + 1 e e % + + + + + + % % % + + + % e X M.        ",
"a 1 ~ c.m 1 e a             a 4 W           4 4 m           4 e     4 J a.      ",
"a a 4 & e a a g             m 4 %.          g e I           m a     e 4 4       ",
"  K 1 m       4 e       a ~   a e a       m   m 4 a       J         4 4 4       ",
"  ~ 1 m       m m m     g %.  ! m m       m   ~ m m       m         m g a       ",
"  K m     r.=.    r.a     g.%.      a       g       W       r.W       r.a p.F.  ",
"  J m     W a       a       m       a       ~       W       [ m         e % 2.  ",
"  m m         [     a         %.g.  a         <.%.  ~         %.%.      e 4 <.  ",
"  m I         m     m         e [   m         W I   [           a       e 4 <.  ",
"  m &.          m m             l.%.            T.a               m     e 1 5.  ",
"  m ]           4 4             k.W               1               a     a I l.  ",
"  ~ 4 4 4     4 e     e 1 j.  e 1 %.  m 4 4   m 1 4     4 a     4 e e 4 a       ",
"  ~ a         4 1 %.  a 1 5.  m 1 [   W 1 a   %.1 a   <.1 a   r.4 e e e e       ",
"  K 8.    J.m e e g I e e a ~ a e a I a e e I g e e I m e e m m e e e e a       ",
"  K 8.    C.1 e e a 1 e e e 1 e e e 4 e e e 4 e e e 4 4 e e 4 4 e e e e a       ",
"  ~ a ] ]     e % Y.                                                    J       ",
"  ~ 1 1 1     e % J.                                                    m       ",
"  ~ 4 e 1 4 e e 1 1 1 1 1 1 1 1 1 1 1 1 1 1 1 1 1 1 1 1 1 1 1 4 e e e 4 e 4 Z.  ",
"  ~ 4 e =.W 4 e [ =.=.=.%.%.%.%.%.%.=.=.=.=.%.%.%.%.%.%.%.%.%.W 4 e e e e 4 Z.  ",
"  ~ 1 m   d.1 a                                               g.4 e e e e 4 D.  ",
"  ~ 1 m     1 a                                                 4 e a 4 e 4 B.  ",
"  ~ 1 m       a                                               <.4 a       g 5.  ",
"  ~ 1 m       a                                               <.4 e       g 5.  ",
"  m 4 m       a                                               <.4 e       a 5.  ",
"  m 4 m       a                                               <.4 e       e d.  ",
"  m 4 m       e % m.                                            4 e       g 1 %.",
"  m 4 m       e 1 x.                                          %.4 e       g 1 [ ",
"m 4 m         e 1 i.                                        %.1 g         a 1 [ ",
"m e W         e 1 q.                                        r.a a         ~ m 1."
};
