/* XPM */
static char *a9414e802e3947d5eaeac78a32f710aduZ9As9K7mgMmtEcl[] = {
/* columns rows colors chars-per-pixel */
"40 40 139 2 ",
"   c #000001",
".  c #02000B",
"X  c #030013",
"o  c #05001C",
"O  c #060024",
"+  c #07002A",
"@  c #08002D",
"#  c #090033",
"$  c #0A003B",
"%  c #0C0044",
"&  c #0D004C",
"*  c #0F0053",
"=  c #0F005A",
"-  c #100056",
";  c #10005C",
":  c #110064",
">  c #12006B",
",  c #140073",
"<  c #16007D",
"1  c #17007D",
"2  c #16007C",
"3  c #16007E",
"4  c #16007F",
"5  c #17007F",
"6  c #15007D",
"7  c #15007C",
"8  c #160080",
"9  c #170080",
"0  c #160081",
"q  c #170081",
"w  c #160083",
"e  c #170084",
"r  c #170087",
"t  c #170084",
"y  c #180086",
"u  c #180085",
"i  c #17008B",
"p  c #17008B",
"a  c #18008B",
"s  c #18008C",
"d  c #19008C",
"f  c #19008F",
"g  c #19008C",
"h  c #190090",
"j  c #190092",
"k  c #1A0092",
"l  c #1A0093",
"z  c #190094",
"x  c #1A0094",
"c  c #1A0096",
"v  c #1A0097",
"b  c #1B0097",
"n  c #1A0094",
"m  c #1A0098",
"M  c #1B009A",
"N  c #1B009B",
"B  c #1C009B",
"V  c #1B009F",
"C  c #1C009C",
"Z  c #1C009D",
"A  c #1C009F",
"S  c #1B009C",
"D  c #1C00A0",
"F  c #1D00A0",
"G  c #1C00A1",
"H  c #1D00A1",
"J  c #1C00A2",
"K  c #1D00A2",
"L  c #1D00A3",
"P  c #1C00A5",
"I  c #1D00A7",
"U  c #1D00A3",
"Y  c #1D00A8",
"T  c #1D00A9",
"R  c #1E00A8",
"E  c #1E00A9",
"W  c #1F00A9",
"Q  c #1D00AA",
"!  c #1E00AA",
"~  c #1E00AB",
"^  c #1F00AC",
"/  c #1F00AD",
"(  c #1E00AE",
")  c #1F00AF",
"_  c #1E00AD",
"`  c #1F00B0",
"'  c #1F00B1",
"]  c #1F00B2",
"[  c #1F00B3",
"{  c #1F00B4",
"}  c #1F00B6",
"|  c #1F00B1",
" . c #1F00B8",
".. c #2000B3",
"X. c #2000B4",
"o. c #2000B5",
"O. c #2000B6",
"+. c #2000B7",
"@. c #2000B5",
"#. c #2000B8",
"$. c #2100B8",
"%. c #2000B9",
"&. c #2100B9",
"*. c #2000BA",
"=. c #2100BA",
"-. c #2000BB",
";. c #2000BC",
":. c #2100BC",
">. c #2100BD",
",. c #2200BD",
"<. c #2100BE",
"1. c #2100BF",
"2. c #2200BE",
"3. c #2200BF",
"4. c #2100BB",
"5. c #2100C0",
"6. c #2100C1",
"7. c #2200C1",
"8. c #2200C3",
"9. c #2300C3",
"0. c #2200C4",
"q. c #2200C5",
"w. c #2300C6",
"e. c #2400C6",
"r. c #2200C3",
"t. c #2200C8",
"y. c #2300C8",
"u. c #2300C9",
"i. c #2300CB",
"p. c #2400CB",
"a. c #2300CC",
"s. c #2300CD",
"d. c #2400CC",
"f. c #2400CD",
"g. c #2400CE",
"h. c #2400CF",
"j. c #2400CA",
"k. c #2500D6",
"l. c #2500D0",
/* pixels */
"                              # : o                           + > O             ",
"                          . + 3 T > O                     . @ w ] > O           ",
"      . X .   . .         X w :.o.T &         . .   X .   . : =.=.=.: .         ",
"      O , O O , #         X f f.F ; o       O > # o > $   . + > :.j., .         ",
"      o : & 7 7.*         . % F m O       o > o.a = , > #     X 7 o.3 .         ",
"O O     o 3 :.m #             % , +     . : :.=.( : . * 7 + .   o , ,           ",
"f m @ X , :.b $ .             . o .     . > f.:.> O   X * w $     o O           ",
"3 f.b : , { w X               o # .     . = y.q.&   . # : > +                   ",
"X 7 T , X = , o     . o + O o > Z & .   . > y.F $   . : , .                     ",
"  o @ o   X o .     . : V b f I =.F %   . , F $ .     o o                       ",
"                    . $ b a.a.{ =.f.>     $ % .                                 ",
"                        # e ( o.] Z &           X + + + X   o O                 ",
"                          o e e.B #     . . . . ; T T T > X > 3 .       . . .   ",
"                        o ; Z y.Z O   X & > = ; l 7.7.7.F > : % .     . % , ; X ",
"                        $ l { T , o   O F k.7.7.=.( ] ] ] l @         o b a.e o ",
"          . .             O l 7 X     + b q.] ] ] ] ] =.w X           O l 3 .   ",
"          & * X         o : I m & . O 3 ( =.] ] ] ] ] =.7           O , ( :     ",
"          ; , % $ o   o , :.:.7.( * & b o.=.] ] ] ] ] =.l % X   . @ 3 q.7.3 # . ",
". X .       $ F y., o : T ..] ] o.] * O w =.] ] ] ] ] ] ] l #   X , =.] o.o.e o ",
"X , $     $ y :.y.( , % : T o.] o.:.m * $ , =.o.( ] ] o.l % X   . # 7 { q.f % . ",
"o 7 $     3 f.:.T q.:.& * T :.:.=.] y.I % : =.=.( ] ] =.i + .       # ] f +     ",
"  .       , o.T ( { ] ] ] ] T D F ( ..] ] ] ] ] ] ] ] ] =.I & .   . ; F % .     ",
"          w l % t 7.o.o.q.T * o $ b :.] =.o.] ] ] ] ] ] o.=.Z % . * ( ] b %     ",
"          & %   # a o.{ :.F O . & V =.] ( ( ] ] ] ] ] ] ( ..7.l & m l.( f %     ",
"X .             . $ F =.:.F @ % T o.] ] ] ] ] ] ] ] ] ] ] ] ] o.=.o.:.Z O       ",
"3 o           . : : # 3 7.{ V * $ l :.] ] ] ] ] ] ] ] ] ] ] ] { =.o.:.B O       ",
": X       # % & ( 3 . # f o.q.3 & l :.] ] ] ] ] ] ] ] ] ] ] ] ] ] ] o.T : o     ",
"          : { 7.j.3 o   # b ] =.=...] ] ] ] ] ] ] ] ] ] ] ] ] ] ] ] ( =.:.>     ",
".   . .   . & I :.o.f #   + a =.] ] ] ] ] ] ] ] ] ] ] ] ] ] ] ] ] ] ] o. .> .   ",
".   # % .   . * b 7.:.3 & * b o.] ] ] ] ] ] ] ] ] ] ] ] ] ] ] ] ] ] ] ..o.l & . ",
". X i b o     o 3 :.=.I Z F ( ] ] { ] ] o...] ] ] ] ] ] ] ] ] ] ] ] ] ] ] ..a o ",
"o e :.a o . @ l { 7.T & . o e =.] ] ..] ( ( ] ] ] ] ] ] ] ] ] ] ] ] ] o.o.> X   ",
"o F 7.Z > - 7 =.q.b & .   . , q.F : y T : 7 =.o.( ] ] ] ] ] ] ] ] ] ] =.{ =     ",
"o l o.o.7.y.7.o.7.w O   . $ f j.b X $ > X & :.=.( ] ] ] ] ] ] ] ] ] ] o.o.3 @ . ",
"o b =.] ] { =.o...:.V O # Z =.7.B +   . . : =.=.( ] ] ] ] ] ] ] ] ] ] ] ] =.l o ",
"o F :.=.:., $ % b j.:.m ; - I b $ .     . > q.=.( ] ] ] o.:.o.( ] ] ] o.{ e $ . ",
"X , I ( f O     * F o.o.& . : *         . & m o.o.] ] ] F f F =.{ ] ] o.o., X   ",
"  . , f +         = I * .   . .             # Z 7.( ] =., o , a.{ ] ( ] ..o.f o ",
"    > e o         X @ X                     . # a :.=.:.3 . o $ % b f. .] o.o.f ",
". O y m % .     O O .   X + X                 . % b ] V = .     . ; l y I =...l "
};
