/* XPM */
static char *edb015f811c7496f9f72591207b04847dTjqcAiyeYZ7PMG4[] = {
/* columns rows colors chars-per-pixel */
"40 40 165 2 ",
"   c None",
".  c black",
"X  c #000001",
"o  c #000002",
"O  c #000307",
"+  c #030407",
"@  c #000009",
"#  c #010508",
"$  c #020708",
"%  c #00060A",
"&  c #03060A",
"*  c #00050F",
"=  c #000C19",
"-  c #010E18",
";  c #00111A",
":  c #0D151F",
">  c #101116",
",  c #151517",
"<  c #13171E",
"1  c #151C1F",
"2  c #0C1027",
"3  c #001C27",
"4  c #071B2A",
"5  c #001E29",
"6  c #001E2B",
"7  c #031B2F",
"8  c #141D27",
"9  c #012029",
"0  c #383A3B",
"q  c #324151",
"w  c #374154",
"e  c #394D52",
"r  c #414656",
"t  c #424756",
"y  c #454857",
"u  c #484C57",
"i  c #414B5F",
"p  c #435254",
"a  c #47545B",
"s  c #4A555B",
"d  c #4A575D",
"f  c #5A5A5A",
"g  c #5E5C5B",
"h  c #5F5D5C",
"j  c #5F5E5E",
"k  c #484C64",
"l  c #4A5563",
"z  c #4B516A",
"x  c #4C526A",
"c  c #4F5D68",
"v  c #4A5872",
"b  c #4B5C78",
"n  c #545E73",
"m  c #4F616C",
"M  c #536067",
"N  c #586366",
"B  c #57607C",
"V  c #5F727E",
"C  c #616B69",
"Z  c #616B6A",
"A  c #646F6D",
"S  c #666B71",
"D  c #676B72",
"F  c #6C7276",
"G  c #62717B",
"H  c #5E6986",
"J  c #586188",
"K  c #626A87",
"L  c #777D83",
"P  c #657090",
"I  c #717FA5",
"U  c #7B7BAB",
"Y  c #7D8A8D",
"T  c #7E8A8F",
"R  c #798298",
"E  c #7C86A8",
"W  c #7B82B8",
"Q  c #839096",
"!  c #839196",
"~  c #85939A",
"^  c #9D9C9F",
"/  c #9CA2A4",
"(  c #9CA3A6",
")  c #A1A6AC",
"_  c #A9ADB2",
"`  c #96A7C4",
"'  c #97A3CD",
"]  c #9CA5CB",
"[  c #9EAED9",
"{  c #9FAFDA",
"}  c #A0A1DD",
"|  c #A0AFDB",
" . c #A1B5DE",
".. c #A3B5E2",
"X. c #AAB7E0",
"o. c #ABB9E5",
"O. c #ABBAE7",
"+. c #ADB9E9",
"@. c #B1BFEB",
"#. c #B0BFED",
"$. c #B4C1ED",
"%. c #B5C3F4",
"&. c #B6C5F4",
"*. c #B8C5F2",
"=. c #B9C7F4",
"-. c #BAC8F5",
";. c #BBC8F5",
":. c #BBC9F5",
">. c #BCCAF6",
",. c #BDCAF6",
"<. c #BCCAF7",
"1. c #BDCBF7",
"2. c #BECEF4",
"3. c #BFCDFA",
"4. c #C3CAC9",
"5. c #C1CFCE",
"6. c #C1CFCF",
"7. c #CCD8D6",
"8. c #DADDE0",
"9. c #DBDEE0",
"0. c #C0CDF5",
"q. c #C0CDF6",
"w. c #C1CFF7",
"e. c #C2D1F7",
"r. c #C5DAF2",
"t. c #C6DAF3",
"y. c #C2D0F8",
"u. c #C3D0F9",
"i. c #C5D2FC",
"p. c #C5D4FF",
"a. c #CBDBFF",
"s. c #CCDEFF",
"d. c #D3DDF8",
"f. c #D5DDF9",
"g. c #D6DEF9",
"h. c #D7E0E5",
"j. c #D9E2E6",
"k. c #DAE3E7",
"l. c #DEEAEF",
"z. c #D1E0FF",
"x. c #D2E2FF",
"c. c #D3E2FF",
"v. c #D4E4FF",
"b. c #D9E1F9",
"n. c #DFEAF8",
"m. c #DBEBFF",
"M. c #DCEDFF",
"N. c #E0E9E7",
"B. c #E7E7E9",
"V. c #E8EEF0",
"C. c #EBF0F3",
"Z. c #EBF4F7",
"A. c #F2F3F4",
"S. c #F5F6F9",
"D. c #F2FBFB",
"F. c #FAFBFE",
"G. c #FAFBFF",
"H. c #FEFFFD",
"J. c #FCFDFF",
"K. c #FEFDFF",
"L. c #FDFEFF",
"P. c #FEFEFF",
"I. c #FFFEFF",
"U. c #FEFFFF",
"Y. c white",
/* pixels */
"                                                                                ",
"                                                                                ",
"                                                                                ",
"                                                                                ",
"                                                                                ",
"                                                                                ",
"                                                                                ",
"                                                                                ",
"                                                                                ",
"                                * . . . . . . @                                 ",
"                              7 d A Z Z Z Z A s 2                               ",
"                            . . 6.Y.Y.Y.Y.Y.Y.6.. .                             ",
"                          3 m Q N.Y.Y.Y.Y.Y.Y.N.Q c -                           ",
"                          . ) Y.Y.Y.Y.Y.Y.Y.Y.Y.Y.) .                           ",
"                        e / 8.Y.Y.Y.Y.Y.b.f.f.n.Y.8./ 0                         ",
"                        h Y.Y.Y.Y.Y.Y.F.,.&.%.r.Y.Y.Y.h                         ",
"                        f Y.Y.Y.Y.Y.Y.F.w.-.-.2.r.n.Y.f                         ",
"                        f Y.Y.Y.Y.Y.Y.F.w.-.-.-.%.d.Y.f                         ",
"                        f Y.Y.Y.Y.Y.Y.F.w.-.,.,.3.e.c.u                         ",
"                        f Y.A.B.S.F.Y.F.w.=.*.$.X.@.p.r                         ",
"                        f Y.L , ] s.D.Y.w.#.} U > B c.r                         ",
"                        f Y.D . I  .Z.Y.y.+.W J . z c.r                         ",
"                        g Y.D . & 8 k.Y.i.| : & . x m.y                         ",
"                        p 4.Y M 1 & k.Y.i.{ + < k K ` q                         ",
"                          . _ Y.a . h.Y.i.{ . w M.E .                           ",
"                          6 G ^ Y F V.Y.y.o.n H R v 4                           ",
"                            . . 7.Y.Y.F.w.,.v.' . .                             ",
"                              6 V ~ C.Y.y.o.P b 9                               ",
"                                - & l.Y.a...O ;                                 ",
"                                    N Z l i                                     ",
"                                    . . . .                                     ",
"                                                                                ",
"                                                                                ",
"                                                                                ",
"                                                                                ",
"                                                                                ",
"                                                                                ",
"                                                                                ",
"                                                                                ",
"                                                                                "
};
