/* XPM */
static char *_000[] = {
/* columns rows colors chars-per-pixel */
"40 40 129 2 ",
"   c #000001",
".  c #020609",
"X  c #020614",
"o  c #030914",
"O  c #020A19",
"+  c #0D151F",
"@  c #131317",
"#  c #13171E",
"$  c #151C1F",
"%  c #060F22",
"&  c #041123",
"*  c #141D27",
"=  c #091D36",
"-  c #0A1D3B",
";  c #032136",
":  c #07223F",
">  c #08243F",
",  c #32383F",
"<  c #0A1643",
"1  c #0A1A45",
"2  c #0C1C4A",
"3  c #0E1F53",
"4  c #072440",
"5  c #0A2146",
"6  c #0D234D",
"7  c #0E2254",
"8  c #0F2956",
"9  c #0F2658",
"0  c #0F2A59",
"q  c #102656",
"w  c #102857",
"e  c #102758",
"r  c #102B5A",
"t  c #344153",
"y  c #334853",
"u  c #38455E",
"i  c #424756",
"p  c #454857",
"a  c #484C57",
"s  c #415154",
"d  c #46535C",
"f  c #5B5B5B",
"g  c #484C64",
"h  c #435365",
"j  c #4A5563",
"k  c #4B5864",
"l  c #435768",
"z  c #4C526A",
"x  c #445470",
"c  c #465875",
"v  c #545E73",
"b  c #536067",
"n  c #57607C",
"m  c #596B7A",
"M  c #626C6B",
"N  c #676B72",
"B  c #6C7276",
"V  c #5E6986",
"C  c #586188",
"Z  c #626A87",
"A  c #777D83",
"S  c #657090",
"D  c #717FA5",
"F  c #7B7BAB",
"G  c #7E8A8E",
"H  c #798298",
"J  c #7C86A8",
"K  c #7B82B8",
"L  c #839196",
"P  c #85939A",
"I  c #9D9C9F",
"U  c #9CA3A5",
"Y  c #A1A6AC",
"T  c #A9ADB2",
"R  c #96A7C4",
"E  c #97A3CD",
"W  c #9CA5CB",
"Q  c #9FAFDA",
"!  c #A0A1DD",
"~  c #A0AFDB",
"^  c #A1B5DE",
"/  c #A3B5E2",
"(  c #AAB7E0",
")  c #ABBAE6",
"_  c #ADB9E9",
"`  c #B1BFEC",
"'  c #B4C1ED",
"]  c #B5C4F4",
"[  c #B9C6F3",
"{  c #BCC9F5",
"}  c #BFCDFA",
"|  c #C2CDCD",
" . c #CCD8D6",
".. c #DBDEE0",
"X. c #C0CDF6",
"o. c #C2D1F7",
"O. c #C6DAF3",
"+. c #C4D1FB",
"@. c #CCDDFF",
"#. c #D5DDF9",
"$. c #D7E0E5",
"%. c #DAE3E7",
"&. c #DEEAEF",
"*. c #D1E0FF",
"=. c #D2E2FF",
"-. c #D3E2FF",
";. c #D4E4FF",
":. c #D9E1F9",
">. c #DFEAF8",
",. c #DBEBFF",
"<. c #DCEDFF",
"1. c #E0E9E7",
"2. c #E7E7E9",
"3. c #E8EEF0",
"4. c #EBF4F7",
"5. c #EBF0F3",
"6. c #F2F3F4",
"7. c #F5F6F9",
"8. c #F2FBFB",
"9. c #FAFBFE",
"0. c #FAFBFF",
"q. c #FEFFFD",
"w. c #FCFDFF",
"e. c #FEFDFF",
"r. c #FDFEFF",
"t. c #FFFEFF",
"y. c #FEFFFF",
"u. c white",
"i. c #FEFEFF",
/* pixels */
"1 6 6 6 2 2 2 2 2 2 2 2 2 2 2 2 2 2 2 2 2 2 2 2 2 < < < < < 2 2 2 2 2 2 2 2 < < ",
"2 8 9 8 8 8 8 8 8 8 9 7 3 7 7 7 7 7 7 7 7 7 7 7 2 1 < 1 < 1 7 7 7 7 7 7 7 7 1 < ",
"2 8 9 8 9 9 8 8 8 9 9 7 7 7 7 7 7 7 7 7 7 7 7 7 7 1 1 1 1 2 7 7 7 7 7 7 7 3 1 < ",
"2 8 0 0 0 0 0 0 0 0 0 0 0 0 0 9 8 8 8 8 8 8 8 8 8 8 8 8 8 8 8 8 8 8 8 8 0 8 1 < ",
"2 r 0 0 0 0 0 0 0 0 0 0 0 0 0 0 0 0 0 0 0 0 0 0 0 0 0 0 0 0 0 0 0 0 0 0 0 w 2 < ",
"2 r 0 0 0 0 0 0 0 0 0 0 0 0 0 0 0 0 0 0 0 0 0 0 0 0 0 0 0 0 0 0 0 0 0 0 0 w 2 < ",
"2 0 0 0 0 0 0 0 0 0 0 0 0 0 0 0 0 0 0 0 0 0 0 0 0 0 0 0 0 0 0 0 0 0 0 0 0 w 1 < ",
"2 0 0 0 0 0 0 0 0 0 0 0 0 0 0 0 0 0 0 0 0 0 0 0 0 0 0 0 0 r r 0 0 0 0 0 0 w 2 < ",
"2 0 0 0 0 0 0 0 0 0 0 0 0 0 0 0 0 0 0 0 0 0 0 0 0 0 0 0 0 r 8 8 7 7 7 8 8 8 2 2 ",
"2 0 0 0 0 0 0 0 0 0 0 0 0 0 0 0 O             X 0 0 0 0 0 0 7 3 3 3 3 7 7 7 3 3 ",
"2 0 0 0 0 0 0 0 0 0 0 0 0 0 6 : d M M M M M M d - 6 0 0 0 0 7 3 3 3 3 7 7 7 7 3 ",
"2 0 0 0 0 0 0 0 0 0 0 0 0 0 &   | u.u.u.u.u.u.|   & 0 0 0 0 7 3 3 3 3 7 7 7 7 3 ",
"2 0 0 0 0 0 0 0 0 0 0 0 8 : l L 1.u.u.u.u.u.u.1.L h = 6 0 0 7 3 7 7 7 7 7 7 7 3 ",
"2 0 0 0 0 0 0 0 0 0 0 0 -   Y u.u.u.u.u.u.u.u.u.u.Y   - 0 0 8 8 8 8 8 8 8 8 7 3 ",
"2 0 0 0 0 0 0 0 0 0 0 0 y U ..u.u.u.u.u.:.#.#.>.u...U , 0 0 0 0 0 0 0 0 0 w 7 7 ",
"2 0 0 0 0 0 0 0 0 0 0 0 f u.u.u.u.u.u.9.{ ] ] O.u.u.u.f 0 0 0 0 0 0 0 0 0 w 7 7 ",
"2 0 0 0 0 0 0 0 0 0 0 0 f u.u.u.u.u.u.9.X.{ { { O.>.u.f 0 0 0 0 0 0 0 0 0 w 7 7 ",
"2 0 0 0 0 0 0 0 0 0 0 0 f u.u.u.u.u.u.9.X.{ { { ] #.u.f 0 0 0 0 0 0 0 0 0 w 7 7 ",
"2 0 0 0 0 0 0 0 0 0 0 0 f u.u.u.u.u.u.9.X.{ { { } o.-.a 0 0 0 0 0 0 0 0 0 0 7 3 ",
"2 8 0 0 0 0 0 0 0 0 0 0 f u.6.2.7.9.u.9.X.[ [ ' ( ` +.i 0 0 0 0 0 0 0 0 0 q 2 1 ",
"2 8 0 0 0 0 0 0 0 0 0 0 f u.A @ W @.8.u.X.` ! F @ n -.i 0 0 0 0 0 0 0 0 0 w 2 < ",
"2 8 0 0 0 0 0 0 0 0 0 0 f u.N   D ^ 4.u.o._ K C   z -.i 0 0 0 0 0 0 0 0 0 w 2 < ",
"2 8 0 0 0 0 0 0 0 0 0 0 f u.N   . * %.u.+.~ + .   z ,.p 0 0 0 0 0 0 0 0 0 w 2 < ",
"2 8 0 0 0 0 0 0 0 0 0 0 s | G b $ . %.u.+.Q . # g Z R t 0 0 0 0 0 0 0 0 0 w 1 1 ",
"2 8 0 0 0 0 0 0 0 0 0 0 -   T u.d   $.u.+.Q   t <.J   - 0 0 0 0 0 0 0 0 0 w 6 2 ",
"2 8 0 0 0 0 0 0 0 0 0 0 6 ; m I G B 3.u.o.) v V H x = 6 0 0 0 0 0 0 0 0 0 w 7 7 ",
"2 0 0 0 0 0 0 0 0 0 0 0 0 0 %    .u.u.9.X.{ ;.E   % 8 8 8 8 0 0 0 0 0 0 0 w 7 7 ",
"2 0 0 0 0 0 0 0 0 0 0 0 0 0 6 4 m P 5.u.o.) S c > 5 7 7 7 7 0 0 0 0 0 0 0 w 7 7 ",
"2 0 0 0 0 0 0 0 0 0 0 0 0 0 0 0 & . &.u.@./ . & 0 7 3 3 3 7 0 0 0 0 0 0 0 w 7 3 ",
"2 0 0 0 0 0 0 0 0 0 0 0 0 0 0 0 8 6 k M j u 6 8 0 7 7 7 3 7 0 0 0 0 0 8 8 8 7 3 ",
"2 0 0 0 0 0 0 0 0 0 0 0 0 0 0 0 0 0 o     o 0 0 0 7 7 7 3 7 0 0 0 0 0 7 3 3 3 3 ",
"2 8 0 0 0 0 0 0 0 r r e e e e e r 0 0 0 0 0 0 0 8 7 7 7 7 7 8 0 0 r e 7 7 7 3 3 ",
"2 8 0 0 0 0 0 0 9 8 7 7 7 7 7 7 q 0 0 0 0 0 0 0 0 8 8 8 8 8 0 0 8 7 7 7 7 7 3 3 ",
"2 w r 0 0 0 0 0 8 7 3 3 3 3 3 3 7 r 0 0 0 0 0 0 0 0 0 0 0 0 0 0 0 7 3 7 7 7 7 3 ",
"2 w r 0 0 0 0 0 0 7 3 7 7 7 7 7 7 r 0 0 0 0 0 0 0 0 0 0 0 0 8 8 8 7 7 7 7 7 7 3 ",
"2 w r 0 0 0 0 0 0 7 3 7 7 7 7 7 7 r 0 0 0 0 0 0 0 0 0 0 0 0 8 7 7 7 7 7 7 7 7 3 ",
"2 w r 0 0 0 0 0 0 7 7 7 7 7 7 3 7 r 0 0 0 0 0 0 0 0 0 0 r r 7 3 7 7 3 7 7 7 7 3 ",
"2 w r 0 0 0 0 0 0 0 9 9 9 9 9 9 0 0 0 0 0 0 0 0 0 0 0 8 7 7 7 7 7 7 3 3 7 3 2 2 ",
"2 8 r r r r 0 0 0 0 0 0 0 0 0 0 0 r r r 0 0 r r r r r 8 3 3 7 7 3 3 3 3 7 3 1 < ",
"1 8 0 8 8 w w 8 0 0 0 0 0 9 9 9 0 q 8 w 8 8 w 8 8 8 8 8 2 3 3 3 3 3 2 2 7 2 1 < "
};
