/* XPM */
static char *_ab2e783d9174c8ca3410e4b09f2aaf8zqaEVAYAnKhwDxdb[] = {
/* columns rows colors chars-per-pixel */
"40 40 100 2 ",
"   c black",
".  c #000002",
"X  c #000003",
"o  c #000004",
"O  c #000005",
"+  c #01000A",
"@  c #02060B",
"#  c #03080B",
"$  c #020010",
"%  c #020012",
"&  c #030015",
"*  c #030017",
"=  c #03001A",
"-  c #04001A",
";  c #04001C",
":  c #04001E",
">  c #050020",
",  c #07002B",
"<  c #0A1820",
"1  c #0B1A23",
"2  c #0C1E28",
"3  c #080031",
"4  c #080033",
"5  c #080034",
"6  c #080035",
"7  c #090036",
"8  c #0D1238",
"9  c #0E1839",
"0  c #0F232F",
"q  c #0F2430",
"w  c #132C3B",
"e  c #0B0041",
"r  c #0B0043",
"t  c #0C0047",
"y  c #0D004C",
"u  c #0D004D",
"i  c #0E0053",
"p  c #0E0056",
"a  c #0F0058",
"s  c #0F0059",
"d  c #173548",
"f  c #1A3C51",
"g  c #100061",
"h  c #100062",
"j  c #110063",
"k  c #12006A",
"l  c #13006E",
"z  c #130071",
"x  c #130072",
"c  c #150574",
"v  c #150079",
"b  c #15007C",
"n  c #16007E",
"m  c #191675",
"M  c #1E3D67",
"N  c #27567B",
"B  c #275A78",
"V  c #160083",
"C  c #170084",
"Z  c #18008E",
"A  c #19008F",
"S  c #1D1E82",
"D  c #190093",
"F  c #1A0097",
"G  c #1B009A",
"H  c #1B009B",
"J  c #1B009E",
"K  c #25319B",
"L  c #1C00A2",
"P  c #1C00A4",
"I  c #1D00A5",
"U  c #1D00A7",
"Y  c #1D00A8",
"T  c #1E00AC",
"R  c #1E00AD",
"E  c #1F00B1",
"W  c #2313B3",
"Q  c #261EB4",
"!  c #2621B2",
"~  c #2621B4",
"^  c #2723B5",
"/  c #2A32B6",
"(  c #2B35B7",
")  c #2D3EB8",
"_  c #2B6385",
"`  c #33759D",
"'  c #2F48B9",
"]  c #3151BA",
"[  c #335ABB",
"{  c #377EA9",
"}  c #3669BD",
"|  c #3871BE",
" . c #3975BE",
".. c #3B7EBB",
"X. c #3B7EBF",
"o. c #3B87B5",
"O. c #3D8BBA",
"+. c #3D87C0",
"@. c #3E8CC1",
"#. c #4091C2",
/* pixels */
"w w w w w q     % 7 7 8 w w w w w w w w w w w w w w w w w w w 2     & 7 7 9 w w ",
"#.#.#.#.#.`     7 E E ) #.#.#.#.#.#.#.#.#.#.#.#.#.#.#.#.#.#.#._     y E E ] #.#.",
"#.#.#.#.#.`     7 E E ) #.#.#.#.#.#.#.#.#.#.#.#.#.#.#.#.#.#.#._     y E E ] #.#.",
"#.#.#.#.#.`     7 E E Q ' '  .#.#.#.#.#.#.#.#.#.#.@.' ' ' ' ' K a a S ' ' | #.#.",
"#.#.#.#.#.`     7 E E E E E [ #.#.#.#.#.#.#.#.#.#.+.E E E E E E E E ) #.#.#.#.#.",
"#.#.#.#.#.`     7 E E E E E [ #.#.#.#.#.#.#.#.#.#.+.E E E E E E E E ) #.#.#.#.#.",
"#.#.O.d d f B B M e e x E E ^ ( ( ( ( ( ( ( ( ( ( / E E E E E A e e m ( ( } #.#.",
"#.#.o.    1 #.#._     y E E E E E E E E E E E E E E E E E E E v     y E E ] #.#.",
"#.#.o.    1 #.#._     y E E E E E E E E E E E E E E E E E E E v     y E E ] #.#.",
"^ ^ ! C C c 0 0 1     % , , , , , , , , , , , , , 4 E E F , , t C C F E E W ^ ^ ",
"E E E E E A                                       + E E A     7 E E E E E E E E ",
"E E E E E A                                       + E E A     7 E E E E E E E E ",
"& & : E E T G G G G G p                           @ X.X...{ { N & & a E E E E E ",
"    + E E E E E E E E j                           # #.#.#.#.#._     y E E E E E ",
"    + E E E E E E E E j                           # #.#.#.#.#._     y E E E E E ",
"E E I                             C E E E E E E E E E E E E E E E E j           ",
"E E I                             C E E E E E E E E E E E E E E E E j           ",
"I I G             + + + + +       b I I I I I I I I I I I E E T I I j + + + + + ",
"                7 E E E E E e                           > E E v     y E E E E E ",
"                7 E E E E E e                           > E E v     y E E E E E ",
"          o > > y E E L A A 7           : > > > > :     = A A j     y E E J A A ",
"          > E E E E E j                 G E E E E I                 y E E y     ",
"          > E E E E E j                 G E E E E I                 y E E y     ",
"          & v v v v v e                 k v v v v x                 7 v v i 7 7 ",
"                                                                          j E E ",
"                                                                          j E E ",
"    o a a t     - a a 4     7 a a &     y a a     o a a t     - a a 4     j E E ",
"    + E E A     7 E E j     l E E ,     G E E     + E E A     7 E E j     j E E ",
"    + E E A     7 E E j     l E E ,     G E E     + E E A     7 E E j     j E E ",
"l l x E E I l l V E E D l l F E E b l l Y E E l l x E E I l l V E E D l l D E E ",
"E E E E E E E E E E E E E E E E E E E E E E E E E E E E E E E E E E E E E E E E ",
"E E E E E E E E E E E E E E E E E E E E E E E E E E E E E E E E E E E E E E E E ",
", , , , , , , , , , , , , , , , , , , , , , , , , , , , , , , , , , , , , , , , ",
"                                                                                ",
"                                                                                ",
"G G G G G G G G G G G G G G G G G G G G G G G G G G G G G G G G G G G G G G G G ",
"E E E E E E E E E E E E E E E E E E E E E E E E E E E E E E E E E E E E E E E E ",
"E E E E E E E E E E E E E E E E E E E E E E E E E E E E E E E E E E E E E E E E ",
"                                                                                ",
"                                                                                "
};
